# xmcd CD database file
#
# Track frame offsets:
#	187
#	47795
#	106395
#	146152
#
# Disc length: 2710 seconds
#
# Revision: 3
# Processed by: cddbd v1.5.2PL0 Copyright (c) Steve Scherf et al.
# Submitted via: CDex 1.51
#
DISCID=360a9404
DTITLE=MAL WALDRON - TOKYO BOUND
DYEAR=1970
DGENRE=Jazz
TTITLE0=JAPANESE ISLAND
TTITLE1=ROCK ONE FOR JIMBO SAN
TTITLE2=ATOMIC ENERGY
TTITLE3=MOUNT FUJIYAMA
EXTD=YEAR: 1970
EXTT0=
EXTT1=
EXTT2=
EXTT3=
PLAYORDER=
